<?xml version="1.0" encoding="UTF-8" standalone="no"?>
<!-- Created with Inkscape (http://www.inkscape.org/) -->

<svg
   width="17.598736mm"
   height="0mm"
   viewBox="0 0 17.598736 0"
   version="1.1"
   id="svg5"
   inkscape:version="1.2.1 (9c6d41e, 2022-07-14)"
   sodipodi:docname="Zeichnung.svg"
   xmlns:inkscape="http://www.inkscape.org/namespaces/inkscape"
   xmlns:sodipodi="http://sodipodi.sourceforge.net/DTD/sodipodi-0.dtd"
   xmlns="http://www.w3.org/2000/svg"
   xmlns:svg="http://www.w3.org/2000/svg">
  <sodipodi:namedview
     id="namedview7"
     pagecolor="#505050"
     bordercolor="#eeeeee"
     borderopacity="1"
     inkscape:showpageshadow="0"
     inkscape:pageopacity="0"
     inkscape:pagecheckerboard="0"
     inkscape:deskcolor="#505050"
     inkscape:document-units="mm"
     showgrid="false"
     inkscape:zoom="3.8892005"
     inkscape:cx="8.6135954"
     inkscape:cy="-673.14605"
     inkscape:window-width="1680"
     inkscape:window-height="997"
     inkscape:window-x="0"
     inkscape:window-y="25"
     inkscape:window-maximized="1"
     inkscape:current-layer="layer1">
    <inkscape:page
       x="0"
       y="0"
       width="66.514908"
       height="150"
       id="page591" />
    <inkscape:page
       x="242.25415"
       y="-690.24603"
       width="100"
       height="100"
       id="page593" />
    <inkscape:page
       x="143.78925"
       y="-810.49719"
       width="0"
       height="150.95312"
       id="page645" />
    <inkscape:page
       x="-48.100311"
       y="-896.46375"
       width="9.7224045"
       height="10.234108"
       id="page926" />
    <inkscape:page
       x="-132.89629"
       y="-941.34668"
       width="100"
       height="100"
       id="page950" />
    <inkscape:page
       x="-19.55352"
       y="-938.53558"
       width="100"
       height="100"
       id="page952" />
    <inkscape:page
       x="93.789246"
       y="-938.53558"
       width="100"
       height="100"
       id="page954" />
    <inkscape:page
       x="207.132"
       y="-938.53558"
       width="100.00002"
       height="100"
       id="page956" />
    <inkscape:page
       x="207.132"
       y="-829.28314"
       width="100.00002"
       height="100"
       id="page958" />
    <inkscape:page
       x="-19.55352"
       y="-826.72461"
       width="94.66552"
       height="98.976585"
       id="page960" />
    <inkscape:page
       x="-132.89629"
       y="-825.18951"
       width="100"
       height="100"
       id="page962" />
    <inkscape:page
       x="-132.89629"
       y="-714.91364"
       width="100"
       height="100.00001"
       id="page964" />
    <inkscape:page
       x="93.789246"
       y="-825.18951"
       width="100"
       height="100"
       id="page970" />
    <inkscape:page
       x="-19.55352"
       y="-709.54407"
       width="100"
       height="99.999992"
       id="page972" />
  </sodipodi:namedview>
  <defs
     id="defs2" />
  <g
     inkscape:label="Ebene 1"
     inkscape:groupmode="layer"
     id="layer1"
     transform="translate(143.78925,-273.25073)">
    <rect
       style="fill:#1a1a1a;stroke-width:0.282715"
       id="rect4879"
       width="121.11004"
       height="123.5705"
       x="-63.101757"
       y="-564.62573"
       rx="33.899876"
       ry="14.875468" />
    <rect
       style="fill:#333333;stroke-width:0.264583"
       id="rect4195"
       width="38.230755"
       height="50.297565"
       x="-42.068542"
       y="-552.04431" />
    <rect
       style="fill:#333333;stroke-width:0.264583"
       id="rect1026"
       width="100"
       height="100"
       x="-276.68555"
       y="-668.2876" />
    <rect
       style="fill:#e6e6e6;stroke-width:0.264583"
       id="rect1135"
       width="22.515038"
       height="19.444811"
       x="-236.40794"
       y="-625.9632" />
    <rect
       style="fill:#aa0000;stroke-width:0.264583"
       id="rect1137"
       width="6.5408985e-06"
       height="7.4381109e-07"
       x="-213.89291"
       y="-616.24078" />
    <rect
       style="fill:#aa0000;stroke-width:0.264583"
       id="rect1247"
       width="11.257515"
       height="19.444811"
       x="-236.40794"
       y="-625.9632" />
    <rect
       style="fill:#f9f9f9;stroke-width:0.264583"
       id="rect1301"
       width="12.645495"
       height="11.622089"
       x="-276.68555"
       y="-668.2876" />
    <rect
       style="fill:#f9f9f9;stroke-width:0.264583"
       id="rect1301-5"
       width="12.645495"
       height="11.622089"
       x="-250.47984"
       y="-580.23914" />
    <rect
       style="fill:#f9f9f9;stroke-width:0.264583"
       id="rect1301-5-7"
       width="12.645495"
       height="11.622089"
       x="-212.50491"
       y="-580.23914" />
    <rect
       style="fill:#f9f9f9;stroke-width:0.264583"
       id="rect1301-6"
       width="12.645495"
       height="11.622089"
       x="-188.48991"
       y="-580.23914" />
    <rect
       style="fill:#f9f9f9;stroke-width:0.250879"
       id="rect1301-6-7"
       width="11.369473"
       height="11.622089"
       x="-186.39035"
       y="-642.84949" />
    <rect
       style="fill:#f9f9f9;stroke-width:0.264583"
       id="rect1301-6-73"
       width="12.645495"
       height="11.622089"
       x="-276.68555"
       y="-642.84949"
       inkscape:transform-center-x="-1.023411"
       inkscape:transform-center-y="-15.862871" />
    <rect
       style="fill:#f9f9f9;stroke-width:0.264583"
       id="rect1301-6-1"
       width="12.645495"
       height="11.622089"
       x="-188.48991"
       y="-603.26587"
       inkscape:transform-center-x="-0.51170551"
       inkscape:transform-center-y="4.093644" />
    <rect
       style="fill:#f9f9f9;stroke-width:0.264583"
       id="rect1301-3"
       width="12.645495"
       height="11.622089"
       x="-276.68555"
       y="-580.23914" />
    <rect
       style="fill:#f9f9f9;stroke-width:0.264583"
       id="rect1301-4"
       width="12.645495"
       height="11.622089"
       x="-187.02837"
       y="-668.2876" />
    <rect
       style="fill:#f9f9f9;stroke-width:0.264583"
       id="rect1301-0"
       width="12.645495"
       height="11.622089"
       x="-212.50491"
       y="-668.2876" />
    <rect
       style="fill:#f9f9f9;stroke-width:0.264583"
       id="rect1301-60"
       width="12.645495"
       height="11.622089"
       x="-250.47984"
       y="-668.2876" />
    <rect
       style="fill:#aa0000;stroke-width:0.264583"
       id="rect1394"
       width="13.560196"
       height="11.622086"
       x="-264.04004"
       y="-668.2876" />
    <rect
       style="fill:#aa0000;stroke-width:0.264583"
       id="rect1399"
       width="12.831054"
       height="11.622085"
       x="-199.85942"
       y="-668.2876" />
    <rect
       style="fill:#f9f9f9;stroke-width:0.264583"
       id="rect1301-6-0"
       width="12.645495"
       height="11.622089"
       x="-276.68555"
       y="-603.26587" />
    <rect
       style="fill:#aa0000;stroke-width:0.264583"
       id="rect1401"
       width="11.369492"
       height="11.622089"
       x="-187.85191"
       y="-591.86121" />
    <rect
       style="fill:#aa0000;stroke-width:0.288477"
       id="rect1401-8"
       width="11.369473"
       height="13.816055"
       x="-186.39035"
       y="-656.66553" />
    <rect
       style="fill:#aa0000;stroke-width:0.288477"
       id="rect1401-9"
       width="11.369492"
       height="13.816059"
       x="-276.04755"
       y="-656.66553" />
    <rect
       style="fill:#aa0000;stroke-width:0.264583"
       id="rect1401-3"
       width="11.369492"
       height="11.622089"
       x="-276.04755"
       y="-591.86121" />
    <rect
       style="fill:#aa0000;stroke-width:0.264583"
       id="rect1401-4"
       width="11.369492"
       height="11.622089"
       x="-199.85942"
       y="-580.23914" />
    <rect
       style="fill:#aa0000;stroke-width:0.264583"
       id="rect1403"
       width="13.560195"
       height="11.622089"
       x="-264.04004"
       y="-580.23914" />
    <rect
       style="fill:#008000;stroke-width:0.264583"
       id="rect1633"
       width="100"
       height="100"
       x="-163.34277"
       y="-665.47656" />
    <rect
       style="fill:#005500;stroke-width:0.264583"
       id="rect2011"
       width="100.00001"
       height="99.999992"
       x="-50.000008"
       y="-665.47656" />
    <rect
       style="fill:#501644;stroke-width:0.264583"
       id="rect2068"
       width="8.8077059"
       height="8.8110161"
       x="-163.34277"
       y="-665.47656" />
    <rect
       style="fill:#aa0000;stroke-width:0.264583"
       id="rect2070"
       width="9.8695478"
       height="8.8812799"
       x="-125.87955"
       y="-645.91968" />
    <rect
       style="fill:#d40055;stroke-width:0.264583"
       id="rect2176"
       width="10.23411"
       height="7.9281225"
       x="-147.37119"
       y="-623.40466" />
    <rect
       style="fill:#782144;stroke-width:0.264583"
       id="rect2230"
       width="8.1872883"
       height="7.928113"
       x="-99.270874"
       y="-623.40466" />
    <rect
       style="fill:#aa00d4;stroke-width:0.264583"
       id="rect2336"
       width="9.3929672"
       height="6.6521688"
       x="-120.94477"
       y="-606.51837" />
    <rect
       style="fill:#002b00;stroke-width:0.264583"
       id="rect2446"
       width="20.468216"
       height="17.2157"
       x="-32.749153"
       y="-597.45483"
       rx="8.9548473"
       ry="8.3519983" />
    <rect
       style="fill:#002b00;stroke-width:0.264583"
       id="rect2450"
       width="11.257521"
       height="12.463221"
       x="7.1638727"
       y="-652.5719"
       rx="8.9548473"
       ry="8.3519983" />
    <rect
       style="fill:#002b00;stroke-width:0.264583"
       id="rect2452"
       width="16.374578"
       height="17.433132"
       x="7.1638727"
       y="-591.86121"
       rx="8.9548473"
       ry="8.3519983" />
    <rect
       style="fill:#002b00;stroke-width:0.264583"
       id="rect2454"
       width="15.351161"
       height="17.727396"
       x="1.169032e-06"
       y="-609.58862"
       rx="8.9548473"
       ry="8.3519983" />
    <rect
       style="fill:#002b00;stroke-width:0.264583"
       id="rect2456"
       width="15.862866"
       height="14.839451"
       x="23.538454"
       y="-609.58862"
       rx="8.9548473"
       ry="8.3519983" />
    <rect
       style="fill:#002b00;stroke-width:0.264583"
       id="rect2458"
       width="13.81605"
       height="16.374584"
       x="-26.096985"
       y="-625.9632"
       rx="8.9548473"
       ry="8.3519983" />
    <rect
       style="fill:#002b00;stroke-width:0.264583"
       id="rect2462"
       width="12.792636"
       height="13.451482"
       x="1.169032e-06"
       y="-631.22742"
       rx="5.1170564"
       ry="10.819389" />
    <rect
       style="fill:#002b00;stroke-width:0.264583"
       id="rect2464"
       width="10.489964"
       height="15.533441"
       x="-29.678921"
       y="-652.5719"
       rx="5.1170564"
       ry="10.819389" />
    <rect
       style="fill:#002b00;stroke-width:0.264583"
       id="rect2466"
       width="14.839458"
       height="19.262512"
       x="18.421389"
       y="-640.10864"
       rx="5.1170564"
       ry="10.819389" />
    <rect
       style="fill:#002b00;stroke-width:0.264583"
       id="rect2471"
       width="8.187295"
       height="18.530113"
       x="-8.1872892"
       y="-649.75751"
       rx="5.1170564"
       ry="10.819389" />
    <rect
       style="fill:#002b00;stroke-width:0.264583"
       id="rect2473"
       width="15.351167"
       height="13.451479"
       x="-41.448147"
       y="-631.22736"
       rx="5.1170564"
       ry="10.819389" />
    <rect
       style="fill:#808080;stroke-width:0.264583"
       id="rect2530"
       width="100"
       height="100"
       x="-276.68555"
       y="-552.13043"
       rx="0"
       ry="0" />
    <rect
       style="fill:#b3b3b3;stroke-width:0.264583"
       id="rect2636"
       width="76.755829"
       height="70.103653"
       x="-264.04004"
       y="-537.43811" />
    <rect
       style="fill:#e6e6e6;stroke-width:0.264583"
       id="rect2692"
       width="28.508385"
       height="28.143803"
       x="-241.01329"
       y="-519.01672"
       ry="14.071901" />
    <rect
       style="fill:#aa0000;stroke-width:0.264583"
       id="rect2694"
       width="7.1638708"
       height="8.4431419"
       x="-244.59523"
       y="-509.16641"
       ry="4.221571" />
    <rect
       style="fill:#aa0000;stroke-width:0.264583"
       id="rect2694-9"
       width="7.1638708"
       height="8.4431419"
       x="-216.08685"
       y="-509.16641"
       ry="4.221571" />
    <rect
       style="fill:#800000;stroke-width:0.264583"
       id="rect2876"
       width="50.000008"
       height="50"
       x="63.342758"
       y="-665.47656"
       ry="0" />
    <rect
       style="fill:#c8ab37;stroke-width:0.264583"
       id="rect2930"
       width="50.000008"
       height="13.307657"
       x="63.342758"
       y="-615.47656"
       ry="0" />
    <rect
       style="fill:#447821;stroke-width:0.264583"
       id="rect2986"
       width="50.000008"
       height="100"
       x="113.34276"
       y="-665.47656" />
    <rect
       style="fill:#447821;stroke-width:0.264583"
       id="rect2988"
       width="50"
       height="36.692345"
       x="63.342758"
       y="-602.16888" />
    <rect
       style="fill:#7f2aff;stroke-width:0.264583"
       id="rect3096"
       width="8.6989937"
       height="11.87463"
       x="95.177216"
       y="-577.3512" />
    <rect
       style="fill:#672178;stroke-width:0.264583"
       id="rect3150"
       width="8.6990061"
       height="8.6078501"
       x="125.36785"
       y="-597.45483" />
    <rect
       style="fill:#ab37c8;stroke-width:0.264583"
       id="rect3308"
       width="6.6521711"
       height="5.9021845"
       x="72.662186"
       y="-594.74915" />
    <rect
       style="fill:#0000ff;stroke-width:0.264583"
       id="rect3414"
       width="27.632088"
       height="43.749157"
       x="125.36785"
       y="-652.5719" />
    <rect
       style="fill:#d5d5ff;stroke-width:0.264583"
       id="rect3520"
       width="12.025085"
       height="43.749157"
       x="113.34276"
       y="-652.5719" />
    <rect
       style="fill:#d5d5ff;stroke-width:0.264583"
       id="rect3522"
       width="10.342834"
       height="50.402988"
       x="152.99992"
       y="-652.5719" />
    <rect
       style="fill:#d5d5ff;stroke-width:0.264583"
       id="rect3524"
       width="36.842781"
       height="4.8612084"
       x="116.15714"
       y="-607.03009" />
    <rect
       style="fill:#d5d5ff;stroke-width:0.264583"
       id="rect3526"
       width="50"
       height="12.904671"
       x="113.34276"
       y="-665.47656"
       ry="2.8421709e-14" />
    <rect
       style="fill:#d5d5ff;stroke-width:0.264583"
       id="rect3528"
       width="50"
       height="6.6538315"
       x="113.34276"
       y="-608.82269" />
    <rect
       style="fill:#d5d5ff;stroke-width:0.264583"
       id="rect3530"
       width="4.7140656"
       height="10.234108"
       x="158.62869"
       y="-662.80597" />
    <rect
       style="fill:#666666;stroke-width:0.297954"
       id="rect3535"
       width="97.770897"
       height="60.765583"
       x="-163.34277"
       y="-553.66559"
       ry="1.8385101e-06" />
    <rect
       style="fill:#000000;stroke-width:0.264583"
       id="rect3589"
       width="94.66552"
       height="49.488293"
       x="-163.34277"
       y="-504.17728"
       ry="1.4973069e-06" />
    <rect
       style="fill:#e6e6e6;stroke-width:0.264583"
       id="rect3599"
       width="27.77924"
       height="4.0936441"
       x="-95.688927"
       y="-492.36633" />
    <rect
       style="fill:#e6e6e6;stroke-width:0.264583"
       id="rect3599-7"
       width="27.77924"
       height="4.0936441"
       x="-163.34277"
       y="-492.91977" />
    <rect
       style="fill:#e6e6e6;stroke-width:0.242358"
       id="rect3599-7-3"
       width="27.77924"
       height="3.4347992"
       x="-163.34277"
       y="-462.72913" />
    <rect
       style="fill:#e6e6e6;stroke-width:0.264583"
       id="rect3599-7-35"
       width="27.77924"
       height="4.0936441"
       x="-163.34277"
       y="-479.43314" />
    <rect
       style="fill:#e6e6e6;stroke-width:0.264583"
       id="rect3599-8"
       width="27.77924"
       height="4.0936441"
       x="-95.688927"
       y="-463.49338" />
    <rect
       style="fill:#e6e6e6;stroke-width:0.264583"
       id="rect3599-71"
       width="27.77924"
       height="4.0936441"
       x="-95.688927"
       y="-476.46173" />
    <rect
       style="fill:#d40000;stroke-width:0.264583"
       id="rect3676"
       width="20.321083"
       height="4.0936432"
       x="-159.61369"
       y="-486.17645" />
    <rect
       style="fill:#00aad4;stroke-width:0.264583"
       id="rect3858"
       width="19.55352"
       height="8.526598"
       x="-159.22992"
       y="-519.35608"
       ry="1.8385101e-06" />
    <rect
       style="fill:#00aad4;stroke-width:0.264583"
       id="rect3858-7"
       width="19.55352"
       height="8.526598"
       x="-97.534256"
       y="-519.35608"
       ry="1.8385101e-06" />
    <rect
       style="fill:#00aad4;stroke-width:0.264583"
       id="rect3858-8"
       width="19.55352"
       height="8.526598"
       x="-130.72153"
       y="-519.35608"
       ry="1.8385101e-06" />
    <rect
       style="fill:#00aad4;stroke-width:0.264583"
       id="rect3890"
       width="4.6437793"
       height="2.9790878"
       x="-156.85696"
       y="-485.61917"
       ry="1.8385101e-06" />
    <rect
       style="fill:#333333;stroke-width:0.264583"
       id="rect3894"
       width="19.55352"
       height="20.832785"
       x="-159.22992"
       y="-547.85455"
       ry="9.7767601" />
    <rect
       style="fill:#000000;stroke-width:0.264583"
       id="rect3896"
       width="10.745815"
       height="10.416392"
       x="-154.82607"
       y="-553.06274"
       ry="5.2081962" />
    <rect
       style="fill:#000000;stroke-width:0.264583"
       id="rect3896-5"
       width="10.745815"
       height="10.416392"
       x="-154.82607"
       y="-547.85449"
       ry="5.2081962" />
    <rect
       style="fill:#000000;stroke-width:0.264583"
       id="rect3896-9"
       width="10.745815"
       height="10.416392"
       x="-160.19897"
       y="-553.06274"
       ry="5.2081962" />
    <rect
       style="fill:#666666;stroke-width:0.264583"
       id="rect3932"
       width="48.317707"
       height="46.680504"
       x="-0.62040234"
       y="-548.51337"
       ry="23.340252"
       rx="24.158854" />
    <rect
       style="fill:#4d4d4d;stroke-width:0.264583"
       id="rect3938"
       width="32.749153"
       height="36.989937"
       x="7.1638746"
       y="-543.90808"
       rx="31.725739"
       ry="24.219812" />
    <rect
       style="fill:#ececec;stroke-width:0.264583"
       id="rect4063"
       width="15.351166"
       height="13.921444"
       x="-0.51170826"
       y="-539.33453"
       rx="31.725739"
       ry="13.921444" />
    <rect
       style="fill:#ececec;stroke-width:0.264583"
       id="rect4063-7"
       width="15.351166"
       height="13.921444"
       x="-14.071917"
       y="-540.81689"
       rx="31.725739"
       ry="13.921444" />
    <rect
       style="fill:#ececec;stroke-width:0.264583"
       id="rect4063-7-5"
       width="15.351166"
       height="13.921444"
       x="14.839458"
       y="-538.48242"
       rx="31.725739"
       ry="13.921444" />
    <rect
       style="fill:#4d4d4d;stroke-width:0.264583"
       id="rect4063-7-5-1"
       width="15.351166"
       height="13.921444"
       x="18.165535"
       y="-531.52173"
       rx="31.725739"
       ry="13.921444" />
    <rect
       style="fill:#ececec;stroke-width:0.264583"
       id="rect4063-7-5-3"
       width="15.351166"
       height="13.921444"
       x="7.1638756"
       y="-531.52173"
       rx="31.725739"
       ry="13.921444" />
    <rect
       style="fill:#ececec;stroke-width:0.264583"
       id="rect4063-7-4"
       width="15.351166"
       height="13.921444"
       x="-21.344513"
       y="-550.02759"
       rx="31.725739"
       ry="13.921444" />
    <rect
       style="fill:#ececec;stroke-width:0.264583"
       id="rect4063-7-1"
       width="15.351166"
       height="13.921444"
       x="-27.120419"
       y="-547.77765"
       rx="31.725739"
       ry="13.921444" />
    <rect
       style="fill:#ececec;stroke-width:0.264583"
       id="rect4063-75"
       width="15.351166"
       height="13.921444"
       x="-9.9782724"
       y="-550.02759"
       rx="31.725739"
       ry="13.921444" />
    <rect
       style="fill:#ececec;stroke-width:0.264583"
       id="rect4063-1"
       width="15.351166"
       height="13.921444"
       x="7.1638746"
       y="-545.44318"
       rx="31.725739"
       ry="13.921444" />
    <rect
       style="fill:#00ccff;stroke-width:0.264583"
       id="rect4251"
       width="27.484957"
       height="25.332361"
       x="-36.695644"
       y="-530.26648"
       ry="12.666181"
       rx="13.742478" />
    <rect
       style="fill:#333333;stroke-width:0.264583"
       id="rect4256"
       width="84.431404"
       height="34.648834"
       x="-44.518379"
       y="-490.87292"
       rx="4.7683716e-06"
       ry="3.4912111e-07" />
    <rect
       style="fill:#999999;stroke-width:0.264583"
       id="rect4258"
       width="10.745815"
       height="6.5050383"
       x="-38.122063"
       y="-494.12546"
       rx="4.7683716e-06"
       ry="3.4912111e-07" />
    <rect
       style="fill:#999999;stroke-width:0.264583"
       id="rect4258-9"
       width="5.3728981"
       height="9.2952003"
       x="-44.75499"
       y="-531.54309"
       rx="4.7683716e-06"
       ry="3.4912111e-07" />
    <rect
       style="fill:#333333;stroke-width:0.264583"
       id="rect4822"
       width="2.3026941"
       height="26.957315"
       x="47.6973"
       y="-552.13043"
       rx="31.725739"
       ry="13.921444" />
    <rect
       style="fill:#008000"
       id="rect4881"
       width="9.9774818"
       height="12.869614"
       x="67.439163"
       y="-549.88782"
       rx="0"
       ry="0" />
    <rect
       style="fill:#008000"
       id="rect4995"
       width="62.025097"
       height="58.90485"
       x="63.342754"
       y="-546.52527" />
    <rect
       style="fill:#008000"
       id="rect4997"
       width="1.8056234"
       height="29.253162"
       x="103.87621"
       y="-487.62042" />
    <rect
       style="fill:#008000"
       id="rect4999"
       width="62.025097"
       height="29.255184"
       x="63.342754"
       y="-556.03241" />
    <rect
       style="fill:#008000"
       id="rect5001"
       width="12.974907"
       height="4.3866291"
       x="125.36785"
       y="-541.40479" />
    <rect
       style="fill:#d4aa00"
       id="rect5003"
       width="16.771988"
       height="49.999996"
       x="125.36785"
       y="-556.03241" />
    <rect
       style="fill:#aa8800"
       id="rect5161"
       width="100.00002"
       height="100"
       x="63.342754"
       y="-556.03241" />
    <path
       style="fill:#000000"
       d="m 206.4534,-472.99384 h -0.40964"
       id="path5404" />
    <path
       style="fill:#000000"
       d="m 72.66219,-479.43313 c 0.48614,0.0382 0.13053,8.36702 0.2484,8.36702 0.0926,0 -0.0332,-0.61278 -0.2484,-1.92773"
       id="path5469" />
    <path
       style="fill:#000000"
       d="m 99.52671,-501.83286 c -0.66862,3.80776 0.8298,7.02188 0.8298,10.69436 0,0.54619 -0.45787,1.34077 0,1.63856 1.11496,0.72516 2.34647,1.25301 3.5197,1.87952"
       id="path5471" />
    <path
       style="fill:#000000"
       d="m 94.3553,-526.77722 c -1.41313,4.41645 -1.37232,8.35313 -1.37232,12.69885 0,0.4536 -0.24351,1.76247 0,2.0482 0.39424,0.46262 0.91488,0.80046 1.37232,1.20069"
       id="path5473" />
    <path
       style="fill:#000000"
       d="m 125.36785,-517.07285 c 2.45009,-0.50385 4.85075,-1.41545 7.35026,-1.51156 0.68223,-0.0262 0,1.36546 0,2.0482 0,0.90709 0.0314,2.0575 0,2.0482 -2.49041,-0.737 -4.90017,-1.72322 -7.35026,-2.58484"
       id="path5475" />
    <path
       style="fill:#000000"
       d="m 125.36785,-487.62042 c 1.41019,-0.90324 2.18747,3.50713 1.20565,3.03617 -0.98182,-0.47096 -0.80377,-2.02411 -1.20565,-3.03617"
       id="path5477" />
    <path
       style="fill:#000000"
       d="m 125.36785,-506.03241 c -5.04546,4.54617 -2.89076,1.30765 -2.89076,11.30577"
       id="path5479" />
    <path
       style="fill:#000000"
       d="m 105.68184,-458.36725 c 1.50201,0.27309 3.00403,0.54618 4.50604,0.81927"
       id="path5481" />
    <path
       style="fill:#000000"
       d="m 108.54932,-526.77723 c 0,3.55022 0,7.10044 0,10.65066"
       id="path5483" />
    <path
       style="fill:#000000"
       d="m 142.13983,-531.03241 c -0.95582,1.4184 -2.39559,2.61117 -2.86747,4.25519 -0.78507,2.73514 0.60965,9.60254 1.22892,12.69885 0.11976,0.5988 0.62617,1.05924 0.81928,1.63856 0.6809,2.0427 0.52786,4.27402 0.81927,6.4074"
       id="path5485" />
    <path
       style="fill:#000000"
       d="m 113.34276,-541.40479 c 0.45039,0.916 1.09473,1.75999 1.35116,2.74799 0.4489,1.72953 -0.15779,7.75286 -0.40964,9.01209 -0.53177,2.65886 -0.40964,-0.91294 -0.40964,1.63856 0,0.2731 0.2661,0.75788 0,0.81928 -1.73476,0.40033 -3.55021,0.27309 -5.32532,0.40964"
       id="path5487" />
    <path
       style="fill:#000000"
       d="m 88.34276,-537.01819 c -0.50147,0.54617 -1.15992,0.98193 -1.50439,1.63851 -0.25884,0.49336 0,7.86686 0,9.42174 0,0.81928 0,1.63856 0,2.45784 0,0.27309 -0.16167,0.59918 0,0.81928 0.38331,0.52187 1.00292,0.81928 1.50439,1.22892"
       id="path5489" />
    <rect
       style="fill:#550000"
       id="rect5543"
       width="37.974926"
       height="66.532471"
       x="125.36785"
       y="-556.03241" />
    <path
       style="fill:#000000"
       d="M -3.83779,-410.43931 0,-410.84895"
       id="path5608" />
    <path
       style="fill:#000000"
       d="m 144.35531,-489.49994 v -66.53247 c -0.32885,1.14928 -0.73981,2.27817 -0.98655,3.44783 -0.51468,2.43985 0.1923,5.28334 0,7.78317 -0.24492,3.18401 -0.42688,6.28256 -0.81928,9.42173 -0.18114,1.44911 0,3.04981 0,4.50605 0,3.55022 0,7.10044 0,10.65065 0,4.64824 0.40767,9.57974 -0.40965,14.19057"
       id="path5610" />
    <path
       style="fill:#008000"
       d="m 183.10389,-487.74275 h 1.22892"
       id="path5612" />
    <rect
       style="fill:#008000"
       id="rect5614"
       width="37.974918"
       height="31.588011"
       x="125.36785"
       y="-487.62042" />
    <rect
       style="fill:#502d16"
       id="rect5616"
       width="31.597841"
       height="22.81435"
       x="126.57351"
       y="-484.58423" />
    <rect
       style="fill:#502d16"
       id="rect5618"
       width="37.974922"
       height="31.588011"
       x="125.36785"
       y="-487.62042" />
    <rect
       style="fill:#008000"
       id="rect5620"
       width="38.817467"
       height="30.19038"
       x="124.52531"
       y="-486.22278" />
    <rect
       style="fill:#008000"
       id="rect5622"
       width="0.42127228"
       height="3.2771606"
       x="143.93405"
       y="-489.49994" />
    <rect
       style="fill:#ffffff"
       id="rect5624"
       width="5.1482792"
       height="10.115527"
       x="137.22415"
       y="-471.88538" />
    <path
       style="fill:#000000"
       d="m 142.37244,-466.82761 h -5.14829"
       id="path5682" />
    <path
       style="fill:#000000"
       d="m 137.22415,-466.82761 h 2.57414 c -0.46199,-1.32911 -0.75734,-3.12153 -0.47769,-4.54412 0.0451,-0.22942 0.31846,-0.34243 0.47769,-0.51365"
       id="path5684" />
    <path
       style="fill:#000000"
       d="m 139.79829,-466.82761 c -1.59952,2.32181 0.045,2.12805 0.045,3.64429 0,0.0581 -0.0581,0.17422 0,0.17422 0.0821,0 0.10077,-0.13749 0.17423,-0.17422 0.25839,-0.1292 0.87005,10e-4 1.04532,-0.17422 0.0411,-0.0411 0.0362,-0.21965 0,-0.17422 -0.45037,0.56547 -0.84301,1.17461 -1.26452,1.76192"
       id="path5686" />
    <path
       style="fill:#ffffff"
       d="M 143.93404,-441.05523 39.91302,-416.9953"
       id="path5688" />
    <ellipse
       style="fill:#ffffff"
       id="path5742"
       cx="138.51123"
       cy="-471.88538"
       rx="1.2870692"
       ry="2.0117186e-06" />
    <ellipse
       style="fill:#ffffff"
       id="path5750"
       cx="138.51123"
       cy="-474.25818"
       rx="1.2870692"
       ry="2.3727942" />
    <rect
       style="fill:#666666"
       id="rect5752"
       width="51.023411"
       height="38.687103"
       x="-276.68555"
       y="-441.6629" />
    <rect
       style="fill:#808080"
       id="rect5754"
       width="117.64079"
       height="122.52818"
       x="-292.02365"
       y="-452.13043" />
    <rect
       style="fill:#e6e6e6"
       id="rect5756"
       width="100.00001"
       height="38.687103"
       x="-276.68555"
       y="-441.6629" />
    <rect
       style="fill:#e6e6e6"
       id="rect5758"
       width="1.0864258e-05"
       height="11.312894"
       x="-226.68555"
       y="-402.97577" />
    <rect
       style="fill:#e6e6e6"
       id="rect5760"
       width="0"
       height="0"
       x="-244.59534"
       y="-410.84894" />
    <rect
       style="fill:#e6e6e6"
       id="rect5762"
       width="35.672256"
       height="61.312893"
       x="-276.68555"
       y="-402.97577" />
    <rect
       style="fill:#502d16"
       id="rect5764"
       width="14.327754"
       height="19.668478"
       x="-241.01329"
       y="-361.33136" />
    <rect
       style="fill:#ff0000"
       id="rect5770"
       width="6.5177188"
       height="12.874396"
       x="-233.20325"
       y="-399.16772" />
    <rect
       style="fill:#00ffff"
       id="rect5776"
       width="3.2588408"
       height="1.9051188"
       x="-229.94438"
       y="-397.31934" />
    <rect
       style="fill:#00ffff"
       id="rect5781"
       width="4.8882828"
       height="3.7535095"
       x="-233.20325"
       y="-399.16772" />
    <rect
       style="fill:#00ffff"
       id="rect5783"
       width="6.5177002"
       height="0.028366089"
       x="-236.4621"
       y="-386.30753" />
    <rect
       style="fill:#00ffff"
       id="rect5785"
       width="6.5177002"
       height="1.8483887"
       x="-233.20325"
       y="-399.16772" />
    <rect
       style="fill:#333333"
       id="rect5789"
       width="100"
       height="40.87912"
       x="-163.34277"
       y="-436.29333" />
    <ellipse
       style="fill:#1a1a1a;stroke-width:1.50367"
       id="path5843"
       cx="-74.962738"
       cy="-423.19202"
       rx="11.132883"
       ry="11.428405" />
    <ellipse
       style="fill:#1a1a1a;stroke-width:1.50367"
       id="path5843-1"
       cx="-97.2285"
       cy="-423.19202"
       rx="11.132879"
       ry="11.428401" />
    <rect
       style="fill:#666666"
       id="rect6421"
       width="25.981577"
       height="59.120876"
       x="-163.34277"
       y="-395.41418" />
    <rect
       style="fill:#00ffff"
       id="rect6423"
       width="15.824443"
       height="6.9125962"
       x="-159.61369"
       y="-390.86633" />
    <rect
       style="fill:#00ffff"
       id="rect6425"
       width="15.824443"
       height="6.4919767"
       x="-159.61369"
       y="-378.81128" />
    <rect
       style="fill:#00ffff"
       id="rect6427"
       width="15.824443"
       height="7.3551049"
       x="-159.61369"
       y="-365.85376" />
    <rect
       style="fill:#666666"
       id="rect6432"
       width="1.797657"
       height="39.206234"
       x="-137.36119"
       y="-434.62042" />
    <rect
       style="fill:#666666"
       id="rect6434"
       width="2.056978"
       height="39.206234"
       x="-122.70522"
       y="-434.62042" />
    <rect
       style="fill:#666666"
       id="rect6436"
       width="0.89882851"
       height="39.206238"
       x="-150.35199"
       y="-434.62042" />
    <ellipse
       style="fill:#999999"
       id="path6614"
       cx="-75.238281"
       cy="-396.25519"
       rx="6.561028"
       ry="3.1590128" />
    <rect
       style="fill:#000000"
       id="rect6490"
       width="74.018417"
       height="59.120911"
       x="-137.36119"
       y="-395.41418" />
    <rect
       style="fill:#e6e6e6"
       id="rect6492"
       width="14.655973"
       height="1.1166975"
       x="-137.36119"
       y="-387.41003" />
    <rect
       style="fill:#e6e6e6"
       id="rect6502"
       width="14.655973"
       height="1.3821919"
       x="-137.36119"
       y="-375.56531" />
    <rect
       style="fill:#e6e6e6"
       id="rect6504"
       width="14.655973"
       height="1.542774"
       x="-137.36119"
       y="-365.85376" />
    <rect
       style="fill:#e6e6e6"
       id="rect6506"
       width="14.655979"
       height="1.4835135"
       x="-137.36119"
       y="-351.49713" />
    <ellipse
       style="fill:#e6e6e6"
       id="path6560"
       cx="-130.41888"
       cy="-357.90405"
       rx="2.5712225"
       ry="6.4069271" />
  </g>
</svg>
