<?xml version="1.0" encoding="UTF-8" standalone="no"?>
<!-- Created with Inkscape (http://www.inkscape.org/) -->

<svg
   width="210mm"
   height="297mm"
   viewBox="0 0 210 297"
   version="1.1"
   id="svg5"
   inkscape:version="1.2.1 (9c6d41e, 2022-07-14)"
   sodipodi:docname="prototyp.svg"
   xmlns:inkscape="http://www.inkscape.org/namespaces/inkscape"
   xmlns:sodipodi="http://sodipodi.sourceforge.net/DTD/sodipodi-0.dtd"
   xmlns="http://www.w3.org/2000/svg"
   xmlns:svg="http://www.w3.org/2000/svg">
  <sodipodi:namedview
     id="namedview7"
     pagecolor="#505050"
     bordercolor="#eeeeee"
     borderopacity="1"
     inkscape:showpageshadow="0"
     inkscape:pageopacity="0"
     inkscape:pagecheckerboard="0"
     inkscape:deskcolor="#505050"
     inkscape:document-units="mm"
     showgrid="false"
     showguides="false"
     inkscape:lockguides="false"
     inkscape:zoom="0.2102413"
     inkscape:cx="-734.86988"
     inkscape:cy="-2518.5346"
     inkscape:window-width="1680"
     inkscape:window-height="997"
     inkscape:window-x="0"
     inkscape:window-y="25"
     inkscape:window-maximized="1"
     inkscape:current-layer="layer1" />
  <defs
     id="defs2" />
  <g
     inkscape:label="Ebene 1"
     inkscape:groupmode="layer"
     id="layer1"
     sodipodi:insensitive="true">
    <rect
       style="fill:#666666;fill-opacity:0.846154;stroke-width:0.264583"
       id="rect788"
       width="400"
       height="400"
       x="-605.32623"
       y="-308.32626" />
    <rect
       style="fill:#666666;fill-opacity:0.846154;stroke-width:0.264583"
       id="rect788-6"
       width="400"
       height="400"
       x="-171.68433"
       y="-303.82416" />
    <rect
       style="fill:#00b400;fill-opacity:1;stroke-width:0.264583"
       id="rect788-5"
       width="400"
       height="400"
       x="-598.30719"
       y="-792.1123" />
    <rect
       style="fill:#666666;fill-opacity:0.846154;stroke-width:0.264583"
       id="rect788-58"
       width="400"
       height="400"
       x="-164.13347"
       y="-739.25635" />
    <rect
       style="fill:#ff9955;fill-opacity:1;stroke-width:0.264583"
       id="rect3226"
       width="83.059319"
       height="32.720337"
       x="-439.20761"
       y="-508.66809" />
    <rect
       style="fill:#800000;fill-opacity:1;stroke-width:0.264583"
       id="rect3066"
       width="309.58475"
       height="173.66948"
       x="-554.9873"
       y="-672.02545" />
    <rect
       style="fill:#4d4d4d;fill-opacity:1;stroke-width:0.264583"
       id="rect3120"
       width="33.978813"
       height="36.495762"
       x="-300.77542"
       y="-641.82208" />
    <circle
       id="path3277"
       style="fill:#00b400;stroke:#000000;stroke-width:0.264583"
       cx="-483.25421"
       cy="-459.3432"
       r="0.16762759" />
    <circle
       id="path3279"
       style="fill:#00b400;stroke:#000000;stroke-width:0.264583"
       cx="-403.97034"
       cy="-422.84744"
       r="0.16762759" />
    <path
       style="fill:#00b400;fill-opacity:1;stroke-width:0.264583"
       id="path3283"
       d="m -464.46238,-452.82212 c 1.1997,3.16833 2.58929,6.25613 3.66874,9.46904 0.87444,2.24655 1.4774,4.57872 1.96162,6.93603 0.0766,0.19103 0.15327,0.38206 0.22989,0.57308 0,0 3.6186,1.64553 3.6186,1.64553 v 0 c -0.0921,-0.16333 -0.18425,-0.32663 -0.27638,-0.48996 -0.50022,-2.37074 -1.08109,-4.72945 -1.96628,-6.9904 -1.08288,-3.21857 -2.48115,-6.30462 -3.64551,-9.49327 0,0 -3.59068,-1.65005 -3.59068,-1.65005 z" />
    <path
       style="fill:#ff7f2a;fill-opacity:1;stroke-width:0.264583"
       id="path4233"
       sodipodi:type="arc"
       sodipodi:cx="-380.05933"
       sodipodi:cy="-446.12924"
       sodipodi:rx="7.5508471"
       sodipodi:ry="10.697034"
       sodipodi:start="0"
       sodipodi:end="6.1336295"
       sodipodi:open="true"
       sodipodi:arc-type="arc"
       d="m -372.50848,-446.12924 a 7.5508471,10.697034 0 0 1 -7.26859,10.68956 7.5508471,10.697034 0 0 1 -7.812,-9.89041 7.5508471,10.697034 0 0 1 6.68456,-11.42896 7.5508471,10.697034 0 0 1 8.31174,9.03596" />
    <path
       style="fill:#ff7f2a;fill-opacity:1;stroke-width:0.264583"
       id="path4235"
       sodipodi:type="arc"
       sodipodi:cx="-395.16101"
       sodipodi:cy="-437.31989"
       sodipodi:rx="5.0338979"
       sodipodi:ry="3.1461864"
       sodipodi:start="0"
       sodipodi:end="6.1336295"
       sodipodi:open="true"
       sodipodi:arc-type="arc"
       d="m -390.12711,-437.31989 a 5.0338979,3.1461864 0 0 1 -4.84573,3.14399 5.0338979,3.1461864 0 0 1 -5.208,-2.90894 5.0338979,3.1461864 0 0 1 4.45638,-3.36146 5.0338979,3.1461864 0 0 1 5.54116,2.65764" />
    <path
       style="fill:#ff7f2a;fill-opacity:1;stroke-width:0.264583"
       id="path4237"
       sodipodi:type="arc"
       sodipodi:cx="-415.2966"
       sodipodi:cy="-453.68008"
       sodipodi:rx="5.0338979"
       sodipodi:ry="6.9216099"
       sodipodi:start="0"
       sodipodi:end="6.1336295"
       sodipodi:open="true"
       sodipodi:arc-type="arc"
       d="m -410.2627,-453.68008 a 5.0338979,6.9216099 0 0 1 -4.84573,6.91677 5.0338979,6.9216099 0 0 1 -5.208,-6.39967 5.0338979,6.9216099 0 0 1 4.45638,-7.39522 5.0338979,6.9216099 0 0 1 5.54116,5.8468" />
    <circle
       id="path3279-0"
       style="fill:#00b400;stroke:#000000;stroke-width:0.264583"
       cx="-393.85989"
       cy="-395.94019"
       r="0.16762759" />
    <path
       style="fill:#00b400;fill-opacity:1;stroke-width:0.264583"
       id="path3283-1"
       d="m -454.35195,-425.91488 c 1.1997,3.16833 2.58929,6.25613 3.66874,9.46904 0.87444,2.24655 1.4774,4.57872 1.96162,6.93603 0.0766,0.19103 0.15327,0.38206 0.22989,0.57308 0,0 3.6186,1.64553 3.6186,1.64553 v 0 c -0.0921,-0.16333 -0.18425,-0.32663 -0.27638,-0.48996 -0.50022,-2.37074 -1.08109,-4.72945 -1.96628,-6.9904 -1.08288,-3.21857 -2.48115,-6.30462 -3.64551,-9.49327 0,0 -3.59068,-1.65005 -3.59068,-1.65005 z" />
    <path
       style="fill:#ff7f2a;fill-opacity:1;stroke-width:0.264583"
       id="path4233-8"
       sodipodi:type="arc"
       sodipodi:cx="-369.94888"
       sodipodi:cy="-419.22198"
       sodipodi:rx="7.5508471"
       sodipodi:ry="10.697034"
       sodipodi:start="0"
       sodipodi:end="6.1336295"
       sodipodi:open="true"
       sodipodi:arc-type="arc"
       d="m -362.39804,-419.22198 a 7.5508471,10.697034 0 0 1 -7.26859,10.68955 7.5508471,10.697034 0 0 1 -7.812,-9.8904 7.5508471,10.697034 0 0 1 6.68457,-11.42897 7.5508471,10.697034 0 0 1 8.31174,9.03597" />
    <path
       style="fill:#ff7f2a;fill-opacity:1;stroke-width:0.264583"
       id="path4235-7"
       sodipodi:type="arc"
       sodipodi:cx="-385.05057"
       sodipodi:cy="-410.41263"
       sodipodi:rx="5.0338979"
       sodipodi:ry="3.1461864"
       sodipodi:start="0"
       sodipodi:end="6.1336295"
       sodipodi:open="true"
       sodipodi:arc-type="arc"
       d="m -380.01667,-410.41263 a 5.0338979,3.1461864 0 0 1 -4.84573,3.14399 5.0338979,3.1461864 0 0 1 -5.208,-2.90894 5.0338979,3.1461864 0 0 1 4.45638,-3.36146 5.0338979,3.1461864 0 0 1 5.54116,2.65763" />
    <path
       style="fill:#ff7f2a;fill-opacity:1;stroke-width:0.264583"
       id="path4237-6"
       sodipodi:type="arc"
       sodipodi:cx="-405.18616"
       sodipodi:cy="-426.77283"
       sodipodi:rx="5.0338979"
       sodipodi:ry="6.9216099"
       sodipodi:start="0"
       sodipodi:end="6.1336295"
       sodipodi:open="true"
       sodipodi:arc-type="arc"
       d="m -400.15226,-426.77283 a 5.0338979,6.9216099 0 0 1 -4.84573,6.91678 5.0338979,6.9216099 0 0 1 -5.208,-6.39968 5.0338979,6.9216099 0 0 1 4.45638,-7.39521 5.0338979,6.9216099 0 0 1 5.54116,5.8468" />
    <rect
       style="fill:#00ffff;fill-opacity:1;stroke-width:0.264583"
       id="rect5068"
       width="225.26695"
       height="74.25"
       x="-553.72882"
       y="-752.56781" />
  </g>
</svg>
